# xmcd
#
# Track frame offsets:
#	150
#	31945
#	58540
#	76097
#	93017
#	107837
#	131694
#	144827
#	161297
#	183654
#	203312
#	227844
#	248563
#	264958
#	281953
#	298910
#
# Disc length: 4195 seconds
#
# Revision: 0
# Processed by: cddbd v1.5.1PL2 Copyright (c) Steve Scherf et al.
# Submitted via: dBpowerAMP V4.0
#
DISCID=d2106110
DTITLE=Peter Green - The Best Of
DYEAR=1999
DGENRE=Blues
TTITLE0=Little Dreamer
TTITLE1=The Clown
TTITLE2=In The Skies
TTITLE3=Touch My Spirit
TTITLE4=Cranes Train Boogie
TTITLE5=Blowing All My Troubles Away
TTITLE6=Bandit
TTITLE7=Proud Pinto
TTITLE8=Carry My Love
TTITLE9=Rubbing My Eyes
TTITLE10=One More Night Without You
TTITLE11=Six String Guitar
TTITLE12=You Won't See Me Anymore
TTITLE13=Long Way From Home
TTITLE14=Corner Of My Mind
TTITLE15=What Am I Doing Here
EXTD=napocacd
EXTT0=
EXTT1=
EXTT2=
EXTT3=
EXTT4=
EXTT5=
EXTT6=
EXTT7=
EXTT8=
EXTT9=
EXTT10=
EXTT11=
EXTT12=
EXTT13=
EXTT14=
EXTT15=
PLAYORDER=
